<svg width="16" height="16" viewBox="0 0 16 16" fill="currentColor" className="overflow-visible" xmlns="http://www.w3.org/2000/svg"><path d="M1.667 12.667V5.333a1.666 1.666 0 0 1 1.666-1.666h4v.666h-4a1 1 0 0 0-1 1v7.334a1 1 0 0 0 1 1h7.334a1 1 0 0 0 1-1v-4h.666v4a1.666 1.666 0 0 1-1.666 1.666H3.333a1.666 1.666 0 0 1-1.666-1.666"/><path d="M13.667 6h.666V1.667H10v.666h3.196L6.431 9.098l.236.235.235.236 6.765-6.765z" className="transition-transform group-hover:-translate-y-0.5 group-hover:translate-x-0.5 duration-300"/></svg>