<svg xmlns="http://www.w3.org/2000/svg" width="16" height="16" viewBox="0 0 16 16" fill="currentColor">
  <path d="M1.66699 12.667V5.33301c0-.44192.1757-.86526.48818-1.17774.31248-.31248.73582-.48819 1.17773-.48828h4v.66602h-4c-.2651.00008-.51957.10551-.70703.29297-.18746.18746-.29289.44193-.29297.70703v7.33399c.00008.2651.10551.51957.29297.70703.18746.18746.44193.29289.70703.29297h7.33399c.2651-.00008.51957-.10551.70703-.29297.18746-.18746.29289-.44193.29297-.70703v-4h.66602v4c-.0001.44191-.1758.86525-.48828 1.17774-.3125.31248-.73584.48819-1.17774.48827H3.33301c-.44191-.0001-.86525-.1758-1.17774-.48827C1.84279 13.5322 1.66708 13.1089 1.66699 12.667Z"/>
  <path d="M13.667 6H14.333V1.66699H10V2.33301h3.1963l-6.76564 6.76465.23633.23535.23535.23633L13.667 2.80371V6Z"/>
</svg>
