<svg width="132" height="79" viewBox="0 0 132 79" fill="none" xmlns="http://www.w3.org/2000/svg">
<path d="M94.5349 68.28C94.5349 70.68 94.8549 72.52 95.4949 73.8C96.1349 75 97.4949 75.84 99.5749 76.32C101.655 76.8 104.735 77.04 108.815 77.04C109.055 77.04 109.175 77.28 109.175 77.76C109.175 78.24 109.055 78.48 108.815 78.48C106.255 78.48 103.455 78.44 100.415 78.36C97.4549 78.28 94.2149 78.24 90.6949 78.24C88.0549 78.24 85.4949 78.28 83.0149 78.36C80.6149 78.44 78.4549 78.48 76.5349 78.48C76.3749 78.48 76.2949 78.24 76.2949 77.76C76.2949 77.28 76.3749 77.04 76.5349 77.04C79.4949 77.04 81.6949 76.84 83.1349 76.44C84.5749 76.04 85.5349 75.24 86.0149 74.04C86.4949 72.84 86.7349 71.08 86.7349 68.76V13.2C86.7349 10.88 86.4949 9.15999 86.0149 8.03999C85.5349 6.83999 84.5749 6.03999 83.1349 5.63999C81.6949 5.15999 79.4949 4.91999 76.5349 4.91999C76.3749 4.91999 76.2949 4.67999 76.2949 4.19999C76.2949 3.71999 76.3749 3.48 76.5349 3.48C78.4549 3.48 80.6149 3.56 83.0149 3.71999C85.4149 3.79999 87.9349 3.83999 90.5749 3.83999C92.6549 3.83999 95.1749 3.71999 98.1349 3.48C101.175 3.23999 104.215 3.12 107.255 3.12C111.815 3.12 115.895 3.79999 119.495 5.16C123.175 6.51999 126.095 8.63999 128.255 11.52C130.415 14.4 131.535 18.16 131.615 22.8C131.615 27.04 130.815 30.68 129.215 33.72C127.695 36.76 125.615 39.28 122.975 41.28C120.415 43.2 117.575 44.64 114.455 45.6C111.335 46.56 108.215 47.04 105.095 47.04C104.135 47.04 103.135 47 102.095 46.92C101.135 46.84 100.215 46.68 99.3349 46.44C99.0149 46.36 98.8949 46.08 98.9749 45.6C99.1349 45.04 99.3349 44.8 99.5749 44.88C100.295 45.04 101.015 45.16 101.735 45.24C102.535 45.32 103.255 45.36 103.895 45.36C107.175 45.36 110.255 44.64 113.135 43.2C116.015 41.76 118.335 39.56 120.095 36.6C121.855 33.56 122.735 29.8 122.735 25.32C122.735 20.92 121.935 17.24 120.335 14.28C118.735 11.24 116.535 8.91999 113.735 7.31999C110.935 5.71999 107.815 4.91999 104.375 4.91999C101.735 4.91999 99.6949 5.07999 98.2549 5.39999C96.8949 5.64 95.9349 6.35999 95.3749 7.55999C94.8149 8.75999 94.5349 10.72 94.5349 13.44V68.28Z" fill="#6B8E77"/>
<path d="M18 5.64C13.04 5.64 9.28 6.92 6.72 9.48C4.24 12.04 2.44 16.4 1.32 22.56C1.32 22.72 1.08 22.8 0.6 22.8C0.2 22.8 0 22.72 0 22.56C0.16 21.52 0.32 20.08 0.48 18.24C0.64 16.32 0.8 14.28 0.96 12.12C1.2 9.96 1.36 7.88 1.44 5.88C1.6 3.8 1.68 2.12 1.68 0.84C1.68 0.440001 1.88 0.240002 2.28 0.240002C2.76 0.240002 3 0.440001 3 0.84C3 1.64 3.4 2.24 4.2 2.64C5 2.96 5.88 3.2 6.84 3.36C7.88 3.44 8.76 3.48 9.48 3.48C16.36 3.72 24.4 3.84 33.6 3.84C39.28 3.84 43.76 3.8 47.04 3.72C50.4 3.56 53.64 3.48 56.76 3.48C59.48 3.48 61.56 3.32 63 3C64.52 2.6 65.48 1.76 65.88 0.48C65.96 0.159999 66.2 0 66.6 0C67 0 67.2 0.159999 67.2 0.48C67.12 1.68 67 3.32 66.84 5.4C66.68 7.48 66.56 9.64 66.48 11.88C66.4 14.12 66.32 16.2 66.24 18.12C66.16 20.04 66.12 21.52 66.12 22.56C66.12 22.72 65.88 22.8 65.4 22.8C64.92 22.8 64.68 22.72 64.68 22.56C64.44 16.32 63.16 11.96 60.84 9.48C58.52 6.92 54.68 5.64 49.32 5.64C45.96 5.64 43.44 5.8 41.76 6.12C40.08 6.44 38.96 7.16 38.4 8.28C37.92 9.32 37.68 11.04 37.68 13.44V68.76C37.68 71.08 37.96 72.84 38.52 74.04C39.08 75.24 40.16 76.04 41.76 76.44C43.44 76.84 45.96 77.04 49.32 77.04C49.56 77.04 49.68 77.28 49.68 77.76C49.68 78.24 49.56 78.48 49.32 78.48C47.24 78.48 44.88 78.44 42.24 78.36C39.6 78.28 36.72 78.24 33.6 78.24C30.64 78.24 27.84 78.28 25.2 78.36C22.56 78.44 20.16 78.48 18 78.48C17.84 78.48 17.76 78.24 17.76 77.76C17.76 77.28 17.84 77.04 18 77.04C21.28 77.04 23.76 76.84 25.44 76.44C27.2 76.04 28.36 75.24 28.92 74.04C29.48 72.84 29.76 71.08 29.76 68.76V13.2C29.76 10.8 29.48 9.08 28.92 8.04C28.36 6.92 27.24 6.24 25.56 6C23.88 5.76 21.36 5.64 18 5.64Z" fill="#2C2C2A"/>
</svg>
