<svg width="162" height="162" viewBox="0 0 162 162" fill="none" xmlns="http://www.w3.org/2000/svg">
<circle cx="81" cy="81" r="81" fill="#FAF9F6" fill-opacity="0.94902"/>
<path d="M109.535 110.28C109.535 112.68 109.855 114.52 110.495 115.8C111.135 117 112.495 117.84 114.575 118.32C116.655 118.8 119.735 119.04 123.815 119.04C124.055 119.04 124.175 119.28 124.175 119.76C124.175 120.24 124.055 120.48 123.815 120.48C121.255 120.48 118.455 120.44 115.415 120.36C112.455 120.28 109.215 120.24 105.695 120.24C103.055 120.24 100.495 120.28 98.0149 120.36C95.6149 120.44 93.4549 120.48 91.5349 120.48C91.3749 120.48 91.2949 120.24 91.2949 119.76C91.2949 119.28 91.3749 119.04 91.5349 119.04C94.4949 119.04 96.6949 118.84 98.1349 118.44C99.5749 118.04 100.535 117.24 101.015 116.04C101.495 114.84 101.735 113.08 101.735 110.76V55.2C101.735 52.88 101.495 51.16 101.015 50.04C100.535 48.84 99.5749 48.04 98.1349 47.64C96.6949 47.16 94.4949 46.92 91.5349 46.92C91.3749 46.92 91.2949 46.68 91.2949 46.2C91.2949 45.72 91.3749 45.48 91.5349 45.48C93.4549 45.48 95.6149 45.56 98.0149 45.72C100.415 45.8 102.935 45.84 105.575 45.84C107.655 45.84 110.175 45.72 113.135 45.48C116.175 45.24 119.215 45.12 122.255 45.12C126.815 45.12 130.895 45.8 134.495 47.16C138.175 48.52 141.095 50.64 143.255 53.52C145.415 56.4 146.535 60.16 146.615 64.8C146.615 69.04 145.815 72.68 144.215 75.72C142.695 78.76 140.615 81.28 137.975 83.28C135.415 85.2 132.575 86.64 129.455 87.6C126.335 88.56 123.215 89.04 120.095 89.04C119.135 89.04 118.135 89 117.095 88.92C116.135 88.84 115.215 88.68 114.335 88.44C114.015 88.36 113.895 88.08 113.975 87.6C114.135 87.04 114.335 86.8 114.575 86.88C115.295 87.04 116.015 87.16 116.735 87.24C117.535 87.32 118.255 87.36 118.895 87.36C122.175 87.36 125.255 86.64 128.135 85.2C131.015 83.76 133.335 81.56 135.095 78.6C136.855 75.56 137.735 71.8 137.735 67.32C137.735 62.92 136.935 59.24 135.335 56.28C133.735 53.24 131.535 50.92 128.735 49.32C125.935 47.72 122.815 46.92 119.375 46.92C116.735 46.92 114.695 47.08 113.255 47.4C111.895 47.64 110.935 48.36 110.375 49.56C109.815 50.76 109.535 52.72 109.535 55.44V110.28Z" fill="#6B8E77"/>
<path d="M33 47.64C28.04 47.64 24.28 48.92 21.72 51.48C19.24 54.04 17.44 58.4 16.32 64.56C16.32 64.72 16.08 64.8 15.6 64.8C15.2 64.8 15 64.72 15 64.56C15.16 63.52 15.32 62.08 15.48 60.24C15.64 58.32 15.8 56.28 15.96 54.12C16.2 51.96 16.36 49.88 16.44 47.88C16.6 45.8 16.68 44.12 16.68 42.84C16.68 42.44 16.88 42.24 17.28 42.24C17.76 42.24 18 42.44 18 42.84C18 43.64 18.4 44.24 19.2 44.64C20 44.96 20.88 45.2 21.84 45.36C22.88 45.44 23.76 45.48 24.48 45.48C31.36 45.72 39.4 45.84 48.6 45.84C54.28 45.84 58.76 45.8 62.04 45.72C65.4 45.56 68.64 45.48 71.76 45.48C74.48 45.48 76.56 45.32 78 45C79.52 44.6 80.48 43.76 80.88 42.48C80.96 42.16 81.2 42 81.6 42C82 42 82.2 42.16 82.2 42.48C82.12 43.68 82 45.32 81.84 47.4C81.68 49.48 81.56 51.64 81.48 53.88C81.4 56.12 81.32 58.2 81.24 60.12C81.16 62.04 81.12 63.52 81.12 64.56C81.12 64.72 80.88 64.8 80.4 64.8C79.92 64.8 79.68 64.72 79.68 64.56C79.44 58.32 78.16 53.96 75.84 51.48C73.52 48.92 69.68 47.64 64.32 47.64C60.96 47.64 58.44 47.8 56.76 48.12C55.08 48.44 53.96 49.16 53.4 50.28C52.92 51.32 52.68 53.04 52.68 55.44V110.76C52.68 113.08 52.96 114.84 53.52 116.04C54.08 117.24 55.16 118.04 56.76 118.44C58.44 118.84 60.96 119.04 64.32 119.04C64.56 119.04 64.68 119.28 64.68 119.76C64.68 120.24 64.56 120.48 64.32 120.48C62.24 120.48 59.88 120.44 57.24 120.36C54.6 120.28 51.72 120.24 48.6 120.24C45.64 120.24 42.84 120.28 40.2 120.36C37.56 120.44 35.16 120.48 33 120.48C32.84 120.48 32.76 120.24 32.76 119.76C32.76 119.28 32.84 119.04 33 119.04C36.28 119.04 38.76 118.84 40.44 118.44C42.2 118.04 43.36 117.24 43.92 116.04C44.48 114.84 44.76 113.08 44.76 110.76V55.2C44.76 52.8 44.48 51.08 43.92 50.04C43.36 48.92 42.24 48.24 40.56 48C38.88 47.76 36.36 47.64 33 47.64Z" fill="#2C2C2A"/>
</svg>
